<svg width="20" height="18" viewBox="0 0 20 18" fill="none" xmlns="http://www.w3.org/2000/svg">
<path d="M10.8199 1.57912L9.9992 2.40163L9.1759 1.57838C7.07688 -0.520689 3.67361 -0.520689 1.57455 1.57838C-0.524523 3.67744 -0.524523 7.0807 1.57455 9.1798L9.4699 17.0751C9.7628 17.368 10.2377 17.368 10.5306 17.0751L18.432 9.1783C20.5264 7.0723 20.53 3.67857 18.4306 1.57912C16.3277 -0.523769 12.9228 -0.523769 10.8199 1.57912ZM17.3684 8.1206L10.0002 15.4842L2.63521 8.1191C1.12192 6.6058 1.12192 4.15232 2.63521 2.63904C4.14849 1.12575 6.602 1.12575 8.1153 2.63904L9.4727 3.99648C9.7706 4.29435 10.2553 4.28854 10.5459 3.98363L11.8806 2.63978C13.3977 1.12268 15.8528 1.12268 17.3699 2.63978C18.8836 4.15343 18.881 6.5997 17.3684 8.1206Z" fill="#004850"/>
</svg>
