<svg width="18" height="19" viewBox="0 0 18 19" fill="none" xmlns="http://www.w3.org/2000/svg">
<path d="M10.4508 0.53318C9.6128 -0.17382 8.3872 -0.17382 7.5492 0.53318L0.79916 6.22772C0.29241 6.65523 0 7.28447 0 7.94747V17.2526C0 18.2191 0.7835 19.0026 1.75 19.0026H4.75C5.7165 19.0026 6.5 18.2191 6.5 17.2526V13.25C6.5 12.5707 7.0418 12.018 7.7169 12.0004H10.2831C10.9582 12.018 11.5 12.5707 11.5 13.25V17.2526C11.5 18.2191 12.2835 19.0026 13.25 19.0026H16.25C17.2165 19.0026 18 18.2191 18 17.2526V7.94747C18 7.28447 17.7076 6.65523 17.2008 6.22772L10.4508 0.53318Z" fill="#115C5A"/>
</svg>
