<svg width="16" height="20" viewBox="0 0 16 20" fill="none" xmlns="http://www.w3.org/2000/svg">
<path d="M4.5 3.5C3.94772 3.5 3.5 3.94772 3.5 4.5C3.5 5.05228 3.94772 5.5 4.5 5.5C5.05229 5.5 5.5 5.05228 5.5 4.5C5.5 3.94772 5.05229 3.5 4.5 3.5ZM3.5 11.5C3.5 10.9477 3.94772 10.5 4.5 10.5C5.05229 10.5 5.5 10.9477 5.5 11.5C5.5 12.0523 5.05229 12.5 4.5 12.5C3.94772 12.5 3.5 12.0523 3.5 11.5ZM4.5 7C3.94772 7 3.5 7.44771 3.5 8C3.5 8.5523 3.94772 9 4.5 9C5.05229 9 5.5 8.5523 5.5 8C5.5 7.44771 5.05229 7 4.5 7ZM7 4.5C7 3.94772 7.4477 3.5 8 3.5C8.5523 3.5 9 3.94772 9 4.5C9 5.05228 8.5523 5.5 8 5.5C7.4477 5.5 7 5.05228 7 4.5ZM8 10.5C7.4477 10.5 7 10.9477 7 11.5C7 12.0523 7.4477 12.5 8 12.5C8.5523 12.5 9 12.0523 9 11.5C9 10.9477 8.5523 10.5 8 10.5ZM10.5 11.5C10.5 10.9477 10.9477 10.5 11.5 10.5C12.0523 10.5 12.5 10.9477 12.5 11.5C12.5 12.0523 12.0523 12.5 11.5 12.5C10.9477 12.5 10.5 12.0523 10.5 11.5ZM8 7C7.4477 7 7 7.44771 7 8C7 8.5523 7.4477 9 8 9C8.5523 9 9 8.5523 9 8C9 7.44771 8.5523 7 8 7ZM2.25 0C1.00736 0 0 1.00736 0 2.25V18.75C0 19.1642 0.33579 19.5 0.75 19.5H15.2528C15.667 19.5 16.0028 19.1642 16.0028 18.75V9.7493C16.0028 8.5067 14.9954 7.4993 13.7528 7.4993H12.5V2.25C12.5 1.00736 11.4926 0 10.25 0H2.25ZM1.5 2.25C1.5 1.83579 1.83579 1.5 2.25 1.5H10.25C10.6642 1.5 11 1.83579 11 2.25V8.2493C11 8.6635 11.3358 8.9993 11.75 8.9993H13.7528C14.167 8.9993 14.5028 9.3351 14.5028 9.7493V18H12.5V15.25C12.5 14.8358 12.1642 14.5 11.75 14.5H4.25C3.83579 14.5 3.5 14.8358 3.5 15.25V18H1.5V2.25ZM11 16V18H8.75V16H11ZM7.25 16V18H5V16H7.25Z" fill="#004850"/>
</svg>
