<svg width="34" height="34" viewBox="0 0 34 34" fill="none" xmlns="http://www.w3.org/2000/svg">
<rect width="34" height="34" fill="white"/>
<path d="M22.0945 20.2895L25.0573 22.9858C24.52 23.7135 23.8341 24.3808 23.0019 24.9939C22.1677 25.607 21.233 26.0928 20.198 26.4557C19.163 26.8185 18.0506 27 16.8629 27C14.9267 27 13.2143 26.5704 11.7297 25.7092C10.243 24.8479 9.08466 23.6676 8.25038 22.1662C7.4161 20.6648 7 18.9486 7 17.0176C7 15.6038 7.24046 14.2775 7.71928 13.0451C8.19811 11.8127 8.87348 10.7367 9.74749 9.81917C10.6194 8.90164 11.6649 8.18429 12.8818 7.66714C14.0987 7.14999 15.4453 6.89349 16.9215 6.89349C18.6842 6.89349 20.2377 7.2188 21.5801 7.86941C22.9225 8.52003 24.0349 9.45633 24.9151 10.6804L21.9523 13.5206C21.3773 12.7177 20.6956 12.0713 19.9094 11.5854C19.1233 11.0975 18.1844 10.8535 17.0909 10.8535C15.9408 10.8535 14.9477 11.1267 14.1134 11.6709C13.2791 12.2152 12.6372 12.9471 12.1876 13.8646C11.736 14.7822 11.5122 15.7956 11.5122 16.905C11.5122 18.0144 11.7381 19.0466 12.1876 19.9454C12.6372 20.8441 13.2749 21.5573 14.1008 22.0828C14.9247 22.6083 15.8928 22.8711 17.0051 22.8711C17.9251 22.8711 18.6925 22.7459 19.3052 22.4978C19.9178 22.2496 20.4405 21.9285 20.8734 21.5365C21.3041 21.1444 21.7118 20.7295 22.0966 20.2895H22.0945Z" fill="black"/>
<path d="M16.9697 26.9812C16.7271 26.6496 16.1542 25.7759 16.1375 24.5414C16.127 23.7949 16.3257 23.2026 16.4783 22.8481C16.2274 22.8314 15.9368 22.7918 15.6169 22.7147C15.2133 22.6187 14.8746 22.4874 14.6069 22.3602C14.6718 23.0629 14.8871 24.3078 15.7214 25.5674C16.1333 26.1888 16.5871 26.6517 16.9697 26.9791V26.9812Z" fill="black"/>
<path d="M14.5126 19.7973C14.2617 22.1975 15.096 24.1994 15.096 24.1994C15.6543 25.5402 16.4426 26.4578 16.9695 26.9812C16.3401 27.0062 15.4766 26.9791 14.4813 26.7622C13.1786 26.4786 12.2231 25.9927 11.7275 25.7091C10.7239 25.1378 9.99622 24.4851 9.50903 23.9742C9.76831 23.1588 10.1886 21.9493 10.8263 20.473C10.9121 20.2749 10.9539 20.1748 11.0145 20.0434C12.2607 17.4159 14.222 15.5162 14.222 15.5162C15.2068 14.68 16.4719 13.7437 18.0338 12.8783C19.2131 12.2256 20.3275 11.7418 21.3145 11.379C17.465 13.335 14.8535 16.5484 14.5147 19.7931L14.5126 19.7973Z" fill="#2DCDC7"/>
<path d="M28.3171 8.90583C28.4405 9.081 28.6977 9.08934 28.8315 8.92251C30.0171 7.45863 31.2026 5.99267 32.3903 4.52879C32.5973 4.27021 32.9465 3.86566 33.2267 3.50073C33.3877 3.2922 33.2308 2.98984 32.9653 3.00026L25.0783 3.30889C24.8253 3.31931 24.6831 3.60083 24.8232 3.80936C25.1473 4.29106 25.4735 4.77277 25.7976 5.25447L31.2821 3.94699C31.2695 3.9595 31.2486 3.96993 31.2382 3.97827C31.2277 3.98661 31.2068 4.00121 31.1943 4.00746L27.0856 5.94471C26.889 6.0302 26.6277 6.15741 26.4855 6.24499L25.9565 8.25313C25.9063 8.44081 26.1196 8.58469 26.2764 8.47417L27.4389 7.65048L28.3171 8.90166V8.90583Z" fill="#2DCDC7"/>
<path d="M11.6397 18.2418C11.1462 18.9799 10.6193 19.8745 10.1321 20.9255C9.69927 21.8618 9.38354 22.7377 9.15145 23.5155L8.34644 22.3894C8.72071 21.1779 9.46718 19.5409 11.0166 18.3147C11.2006 18.1688 11.3887 18.0353 11.5748 17.9164L11.6397 18.2438V18.2418Z" fill="black"/>
<path d="M17.8436 12.1965C17.9251 12.3154 14.0193 14.1525 11.14 18.5504C9.97748 20.325 9.31675 22.0058 8.92574 23.2465C8.78147 23.0672 8.62883 22.8566 8.48037 22.6126C8.32355 22.3561 8.20019 22.1121 8.104 21.8931C8.61837 20.7942 9.41711 19.3324 10.6424 17.8018C13.8394 13.8105 17.7662 12.0776 17.8457 12.1944L17.8436 12.1965Z" fill="#2DCDC7"/>
</svg>
