<svg width="24" height="24" viewBox="0 0 24 24" fill="none" xmlns="http://www.w3.org/2000/svg">
<path d="M13.4938 2.0029C15.0915 2.0029 16.3975 3.25182 16.4879 4.82193L16.4928 4.99766L18.7438 4.99866C19.611 4.99866 20.3309 5.62938 20.4697 6.45724L20.488 6.60529L20.4938 6.74884L20.4929 10.4999L18.4953 10.5C17.7517 10.5 17.1291 11.0432 17.0154 11.739L17.0001 11.8712L16.9953 12C16.9953 12.7436 17.5385 13.3662 18.2344 13.4799L18.3665 13.4952L18.4953 13.5L20.4929 13.4999L20.4938 17.2513C20.4938 18.1695 19.7867 18.9225 18.8873 18.9955L18.7438 19.0013L16.4928 19.0007L16.4888 19.1733C16.4044 20.6291 15.2819 21.8065 13.8506 21.9761L13.6701 21.992L13.4938 21.9971C11.8962 21.9971 10.5902 20.7481 10.4989 19.1766L10.4938 19.0007L8.24383 19.0013C7.37666 19.0013 6.65681 18.3706 6.518 17.543L6.49963 17.395L6.49383 17.2515L6.49283 14.9997L6.32983 14.9949C4.874 14.9105 3.69668 13.7881 3.52709 12.3567L3.51119 12.1763L3.5061 12C3.5061 10.4023 4.75502 9.09631 6.32976 9.00506L6.49283 8.99966L6.49383 6.74866C6.49383 5.8815 7.12455 5.16165 7.95214 5.02284L8.10014 5.00446L8.24364 4.99866L10.4928 4.99766L10.4989 4.82662C10.5833 3.3708 11.7058 2.19348 13.1371 2.02389L13.3176 2.00799L13.4938 2.0029ZM13.4938 3.5029C12.7142 3.5029 12.0734 4.09778 12.0007 4.85905L11.9938 5.00363L11.9924 6.49771L8.24383 6.49866C8.12548 6.49866 8.02634 6.58089 8.00043 6.69145L7.99383 6.74884L7.99292 10.4998L6.5061 10.5C5.67767 10.5 5.0061 11.1716 5.0061 12C5.0061 12.7797 5.60099 13.4204 6.36158 13.4931L6.50603 13.5L7.99292 13.4998L7.99383 17.2513C7.99383 17.3696 8.07606 17.4688 8.18645 17.4947L8.24373 17.5013L11.9924 17.5008L11.9938 18.9971C11.9938 19.8255 12.6654 20.4971 13.4938 20.4971C14.2735 20.4971 14.9143 19.9022 14.987 19.1421L14.9938 18.9978L14.9924 17.5008L18.7438 17.5013C18.8622 17.5013 18.9613 17.4191 18.9872 17.3087L18.9938 17.2515L18.9928 14.9987L18.4701 14.9996L18.2907 14.9931C16.7794 14.8909 15.5866 13.6756 15.5007 12.1519L15.4957 11.9747L15.5022 11.7953C15.6044 10.284 16.8197 9.09125 18.3208 9.00497L18.4953 8.99997L18.9928 8.99966L18.9938 6.74866C18.9938 6.65398 18.9412 6.5716 18.8636 6.52916L18.8011 6.50526L18.7437 6.49866L14.9924 6.49771L14.9938 5.0029C14.9938 4.17447 14.3223 3.5029 13.4938 3.5029Z" fill="#004850"/>
</svg>
