<svg width="37" height="36" viewBox="0 0 37 36" fill="none" xmlns="http://www.w3.org/2000/svg">
<g filter="url(#filter0_d_60_5298)">
<rect x="4.5" width="28" height="28" rx="14" fill="white"/>
<rect x="5" y="0.5" width="27" height="27" rx="13.5" stroke="#004850"/>
<path fill-rule="evenodd" clip-rule="evenodd" d="M24.5 8.5C24.5 8.22386 24.2761 8 24 8H18C17.7239 8 17.5 8.22386 17.5 8.5C17.5 8.77614 17.7239 9 18 9H22.7929L12.6464 19.1464C12.4512 19.3417 12.4512 19.6583 12.6464 19.8536C12.8417 20.0488 13.1583 20.0488 13.3536 19.8536L23.5 9.70711V14.5C23.5 14.7761 23.7239 15 24 15C24.2761 15 24.5 14.7761 24.5 14.5V8.5Z" fill="#004850"/>
</g>
<defs>
<filter id="filter0_d_60_5298" x="0.5" y="0" width="36" height="36" filterUnits="userSpaceOnUse" color-interpolation-filters="sRGB">
<feFlood flood-opacity="0" result="BackgroundImageFix"/>
<feColorMatrix in="SourceAlpha" type="matrix" values="0 0 0 0 0 0 0 0 0 0 0 0 0 0 0 0 0 0 127 0" result="hardAlpha"/>
<feOffset dy="4"/>
<feGaussianBlur stdDeviation="2"/>
<feColorMatrix type="matrix" values="0 0 0 0 0.5445 0 0 0 0 0.70719 0 0 0 0 0.825 0 0 0 0.1 0"/>
<feBlend mode="normal" in2="BackgroundImageFix" result="effect1_dropShadow_60_5298"/>
<feBlend mode="normal" in="SourceGraphic" in2="effect1_dropShadow_60_5298" result="shape"/>
</filter>
</defs>
</svg>
